<svg width="40" height="40" viewBox="0 0 40 40" fill="none" xmlns="http://www.w3.org/2000/svg">
<g clip-path="url(#clip0_31_916)">
<path d="M27.2 26.94C25.8206 28.3855 24.0392 29.3837 22.0861 29.8054C20.1331 30.227 18.0985 30.0528 16.2456 29.3052C14.3927 28.5575 12.8069 27.271 11.6934 25.612C10.5799 23.953 9.98997 21.998 10 20C10 18.1429 10.5172 16.3225 11.4935 14.7427C12.4698 13.1629 13.8668 11.8863 15.5279 11.0557C17.1889 10.2252 19.0485 9.87363 20.8981 10.0404C22.7477 10.2072 24.5143 10.8857 26 12V10H30V23C30 23.7957 30.3161 24.5587 30.8787 25.1213C31.4413 25.6839 32.2044 26 33 26C33.7957 26 34.5587 25.6839 35.1213 25.1213C35.6839 24.5587 36 23.7957 36 23V20C35.9975 16.5192 34.86 13.1341 32.7599 10.3582C30.6598 7.58223 27.7117 5.56688 24.3628 4.61775C21.0139 3.66862 17.4468 3.83749 14.2025 5.09876C10.9582 6.36003 8.2137 8.64489 6.38525 11.6068C4.5568 14.5687 3.74414 18.0461 4.0705 21.5116C4.39687 24.9771 5.84446 28.2417 8.19373 30.8101C10.543 33.3786 13.6658 35.1109 17.0885 35.7443C20.5112 36.3777 24.0472 35.8777 27.16 34.32L28.96 37.9C25.0698 39.8494 20.65 40.4769 16.3709 39.6873C12.0918 38.8977 8.187 36.7342 5.24867 33.5248C2.31035 30.3154 0.498862 26.2353 0.0889601 21.9034C-0.320941 17.5714 0.693113 13.224 2.97731 9.5204C5.26151 5.81685 8.69123 2.95928 12.7463 1.38111C16.8013 -0.197053 21.2604 -0.409707 25.4472 0.775405C29.634 1.96052 33.3201 4.47874 35.9464 7.9481C38.5726 11.4175 39.9958 15.6487 40 20H39.64H39.98V23C39.9845 24.5004 39.5067 25.9626 38.6172 27.1709C37.7277 28.3792 36.4734 29.2697 35.0394 29.7111C33.6054 30.1525 32.0674 30.1215 30.6524 29.6225C29.2374 29.1236 28.0201 28.1832 27.18 26.94H27.2ZM20 26C21.5913 26 23.1174 25.3679 24.2427 24.2426C25.3679 23.1174 26 21.5913 26 20C26 18.4087 25.3679 16.8826 24.2427 15.7574C23.1174 14.6321 21.5913 14 20 14C18.4087 14 16.8826 14.6321 15.7574 15.7574C14.6322 16.8826 14 18.4087 14 20C14 21.5913 14.6322 23.1174 15.7574 24.2426C16.8826 25.3679 18.4087 26 20 26Z" fill="black"/>
</g>
<defs>
<clipPath id="clip0_31_916">
<rect width="40" height="40" fill="white"/>
</clipPath>
</defs>
</svg>
