<svg width="40" height="40" viewBox="0 0 40 40" fill="none" xmlns="http://www.w3.org/2000/svg">
<g clip-path="url(#clip0_31_908)">
<path fill-rule="evenodd" clip-rule="evenodd" d="M20 0C8.95536 0 0 9.17906 0 20.51C0 29.573 5.73214 37.252 13.6786 39.9664C14.6786 40.1539 15.0446 39.5199 15.0446 38.9753C15.0446 38.4842 15.0268 37.1984 15.0179 35.484C9.45536 36.7252 8.27679 32.7339 8.27679 32.7339C7.36607 30.3677 6.05357 29.7337 6.05357 29.7337C4.24107 28.4569 6.1875 28.4836 6.1875 28.4836C8.19643 28.6265 9.25 30.5998 9.25 30.5998C11.0357 33.7339 13.9286 32.8321 15.0714 32.3053C15.25 30.9838 15.7679 30.073 16.3393 29.5641C11.9018 29.0462 7.23214 27.2872 7.23214 19.4296C7.23214 17.1884 8.00893 15.358 9.28571 13.9293C9.08036 13.4114 8.39286 11.322 9.48214 8.50045C9.48214 8.50045 11.1607 7.94685 14.9821 10.5988C16.5804 10.1434 18.2857 9.92017 19.9911 9.91124C21.6875 9.92017 23.4018 10.1434 25 10.5988C28.8214 7.94685 30.4911 8.50045 30.4911 8.50045C31.5804 11.322 30.8929 13.4114 30.6875 13.9293C31.9643 15.3669 32.7411 17.1973 32.7411 19.4296C32.7411 27.305 28.0625 29.0372 23.6071 29.5462C24.3214 30.1802 24.9643 31.4302 24.9643 33.341C24.9643 36.0823 24.9375 38.2967 24.9375 38.9663C24.9375 39.511 25.2946 40.1539 26.3125 39.9485C34.2768 37.243 40 29.5641 40 20.51C40 9.17906 31.0446 0 20 0Z" fill="black"/>
</g>
<defs>
<clipPath id="clip0_31_908">
<rect width="40" height="40" fill="white"/>
</clipPath>
</defs>
</svg>
