<svg width="40" height="40" viewBox="0 0 40 40" fill="none" xmlns="http://www.w3.org/2000/svg">
<g clip-path="url(#clip0_31_904)">
<path d="M37.3695 0H2.98084C1.33489 0 0 1.29485 0 2.89069V37.4629C0 39.0579 1.33489 40.3528 2.98084 40.3528H37.3695C39.0179 40.3528 40.3528 39.0571 40.3528 37.4629V2.89069C40.3528 1.29403 39.0171 0 37.3695 0ZM12.2312 33.7804H6.1364V15.5592H12.2312V33.7804ZM9.18419 13.0702H9.14336C7.09899 13.0702 5.77635 11.6706 5.77635 9.92228C5.77635 8.13497 7.13981 6.77441 9.22419 6.77441C11.3094 6.77441 12.592 8.13497 12.6328 9.92228C12.6328 11.6706 11.3086 13.0702 9.18419 13.0702ZM34.209 33.7804H28.1143V24.0301C28.1143 21.5816 27.2325 19.9103 25.0273 19.9103C23.3438 19.9103 22.3412 21.0372 21.8995 22.126C21.7387 22.5146 21.6995 23.0581 21.6995 23.6033V33.7796H15.6047C15.6047 33.7796 15.6847 17.2662 15.6047 15.5584H21.6995V18.1376C22.5094 16.8963 23.9578 15.1284 27.1933 15.1284C31.2029 15.1284 34.2098 17.7335 34.2098 23.3307L34.209 33.7804Z" fill="black"/>
</g>
<defs>
<clipPath id="clip0_31_904">
<rect width="40" height="40" fill="white"/>
</clipPath>
</defs>
</svg>
