<svg fill="none" height="256" viewBox="0 0 256 256" width="256" xmlns="http://www.w3.org/2000/svg"><path d="m0 0h256v256h-256z" fill="#ffefe1"/><path d="m171.949 48.0344c3.961 6.497 2.291 14.3006.599 21.4286-.585 2.2447-1.185 4.4857-1.799 6.723-.602 2.2637-1.202 4.528-1.8 6.7929-.268.9855-.536 1.971-.812 2.9863-.686 2.4509-.686 2.4509-.587 5.0163 1.277-.6776 1.277-.6776 2.58-1.369 3.882-2.0556 7.769-4.1022 11.656-6.1487 2.009-1.0664 2.009-1.0664 4.058-2.1544 1.955-1.0268 1.955-1.0268 3.949-2.0744 1.193-.6299 2.386-1.2598 3.615-1.9088 6.633-3.1558 11.698-5.2292 18.928-2.9797 2.48 2.0794 2.48 2.0794 3.839 5.1185-.271 7.7207-.271 7.7207-2.914 10.961-2.502 2.0833-4.963 3.4416-7.882 4.8842-1.134.5623-2.268 1.1245-3.436 1.7039-1.215.5956-2.43 1.1913-3.682 1.805-1.875.9505-1.875.9505-3.787 1.9199-6.072 3.049-12.068 5.87-18.477 8.137-12.703 4.636-12.703 4.636-20.828 14.951-2.315 5.729-4.052 11.604-5.755 17.539-1.594 5.058-3.824 9.694-6.257 14.396-.427.831-.855 1.662-1.296 2.518-6.72 12.801-14.692 24.188-24.216 35.071-.879 1.017-1.758 2.035-2.664 3.084-9.861 10.666-24.0035 20.128-38.7586 21.513-7.1499-.554-11.3942-2.854-16.515-7.862-8.5627-10.33-10.92-25.41-9.882-38.489 2.7184-15.174 11.5219-24.163 23.7378-32.93 11.8865-7.991 24.7794-14.641 37.6838-20.814-3.323-6.645-7.523-11.943-12.3464-17.579-5.2854-6.2493-10.1611-12.7744-15.0055-19.3695-.761-1.0346-1.5221-2.0693-2.3062-3.1353-2.0731-2.8359-4.1278-5.6837-6.1712-8.5411-.5423-.75-1.0846-1.4999-1.6433-2.2725-3.5177-5.0202-4.3882-8.2-3.4752-14.3625 1.9794-2.8492 1.9794-2.8492 5.1185-5.1185 3.5057-.1761 6.4614-.0538 9.917.3199 10.8399.8584 21.6413 1.1685 32.5103 1.1917 1.757.0052 3.513.0159 5.269.0328 11.015.1033 21.538-.5643 32.393-2.2726 11.742-1.4833 11.742-1.4833 16.442 1.288zm-26.462 19.2692c-9.732 1.0238-19.51.7805-29.282.7248-1.976-.0064-3.952-.0123-5.928-.0175-4.795-.0139-9.59-.036-14.3855-.0625 4.9525 8.6303 9.9645 17.1465 15.5955 25.3524 4.045 5.9194 7.786 11.8882 11.276 18.1542 3.774-1.54 7.526-3.125 11.277-4.718 1.066-.435 2.133-.87 3.232-1.317 4.343-1.867 7.748-3.333 10.924-6.8858 2.218-5.7235 3.901-11.5516 5.518-17.4697.523-1.8631.523-1.8631 1.057-3.7639 1.741-5.2366 1.741-5.2366 2.542-10.6318-4.015-.0557-7.847.1219-11.826.6348zm-24.452 65.7954c-1.906.858-3.814 1.71-5.724 2.557-10.319 4.574-20.3667 9.369-30.0613 15.167-.7833.469-1.5666.937-2.3737 1.42-7.3685 4.529-14.4923 9.782-17.6953 18.075-1.2048 11.123-.2482 20.818 5.1185 30.71 1.42 1.673 1.42 1.673 4.9585 1.84 14.0961-.457 24.9353-12.669 33.9643-22.248 12.917-14.278 27.638-35.641 30.176-55.089-5.53 0-13.308 5.288-18.363 7.568z" fill="#ff9d47"/><g fill="#0a0a0a"><path d="m171.145 47.0249c.569.3273 1.053.7949 1.359 1.3764 3.323 6.3108 1.763 13.6814.146 20.4934-.586 2.2447-1.085 4.6183-1.698 6.8556-.602 2.2637-1.163 4.3745-1.761 6.6394-.268.9855-.557 2.1654-.833 3.1808-.275.9813-.512 1.8707-.691 2.749-.385 1.8913.509 1.8499 2.213.9452 3.883-2.0556 7.79-4.1916 11.677-6.2381 2.009-1.0664 2.009-1.0664 4.059-2.1544 1.954-1.0268 1.954-1.0268 3.948-2.0744 1.193-.6299 2.386-1.2598 3.615-1.9088 6.394-3.0423 11.332-5.0787 18.157-3.2058.511.1403.982.4019 1.389.7416 1.75 1.4606 2.402 2.0295 3.396 4.0842.266.5494.38 1.1644.356 1.7742-.261 6.5875-.673 7.1123-2.99 9.9468-.162.1987-.343.3823-.542.5441-2.404 1.9527-4.828 3.3388-7.632 4.7241-1.133.5623-2.215 1.0067-3.383 1.586-1.215.5956-2.501 1.1837-3.753 1.7974-1.875.9504-1.975.9937-3.888 1.9634-6.071 3.049-11.872 5.798-18.281 8.065-12.513 4.567-12.478 4.609-20.24 14.468-.235.298-.432.634-.572.985-2.216 5.55-4.005 11.059-5.655 16.811-1.594 5.058-3.684 9.513-6.117 14.215-.427.831-1.024 2.04-1.465 2.896-6.72 12.801-13.919 23.541-23.443 34.424-.879 1.018-2.113 2.355-3.019 3.404-9.786 10.584-24.6819 20.848-39.3277 22.359-.227.024-.457.026-.6842.005-6.9381-.632-10.9683-3.901-16.0065-8.829-8.5627-10.329-10.92-25.409-9.882-38.488 2.7185-15.174 11.5219-24.163 23.7379-32.93 10.7603-7.234 22.3455-13.369 34.0175-19.046 2.011-.978 2.856-3.415 1.724-5.344-2.963-5.05-6.477-9.415-10.4042-14.0029-5.2853-6.2496-10.161-12.7747-15.0055-19.3698-.761-1.0346-1.522-2.0693-2.3061-3.1353-2.0732-2.8359-4.1279-5.6838-6.1713-8.5412-.5423-.7499-1.0845-1.4998-1.6433-2.2724-3.3363-4.7613-4.2913-7.8672-3.602-13.4324.0757-.6115.3092-1.1952.663-1.6997 1.2872-1.8354 1.6646-2.2229 3.6218-3.6524.6242-.4559 1.3716-.7206 2.1442-.7453 3.0052-.096 5.6733.0377 8.7333.3687 10.84.8584 21.6411 1.1685 32.5101 1.1917 1.757.0052 3.513.0159 5.27.0328 11.015.1033 21.537-.5643 32.393-2.2726 10.978-1.3869 11.945-1.5358 15.866.7157zm-23.543 3.8513c-9.476 1.6426-18.837 1.6121-28.426 1.5196-1.815-.0071-3.63-.0135-5.444-.0194-10.756-.0575-21.4897-.3101-32.2081-1.2693-1.5498-.1252-3.1048-.1822-4.66-.2102-1.0715-.0192-2.1017.4061-2.8595 1.1638-.0275.0276-.055.0551-.0826.0826-.8206.8207-1.2647 1.96-1.0799 3.1058 1.9381 12.02 14.1777 23.776 21.5062 32.9759 4.3837 5.5041 8.6969 11.0607 12.9909 16.635.728.936 1.456 1.871 2.205 2.835 1.012 1.316 1.012 1.316 2.044 2.658.601.778 1.201 1.555 1.82 2.356.892 1.322 1.235 1.83 1.665 2.92.683 1.731-.177 3.682-1.844 4.508-33.834 15.977-36.0933 13.941-57.9358 43.263-.2701.363-.4885.782-.6146 1.216-3.5442 12.202-1.0267 26.517 4.0503 37.98 2.8562 4.892 5.6328 8.596 10.9809 10.656.2383.092.4894.157.7421.193 10.9735 1.604 20.0072-3.057 29.0497-9.015 5.6224-4.174 10.5444-9.005 15.3554-14.076 1.09-1.143 2.181-2.286 3.304-3.464 16.17-18.207 25.726-39.924 33.96-62.593.371-1.004.742-2.008 1.124-3.042.329-1.029.657-2.058.994-3.113.06-.188.134-.373.223-.549 1.747-3.456 3.132-4.188 6.751-5.8 1.1-.505 2.2-1.009 3.334-1.529 1.179-.517 2.359-1.033 3.574-1.565 2.445-1.117 4.889-2.235 7.333-3.354 1.218-.551 2.436-1.102 3.69-1.669 5.041-2.305 10.011-4.737 14.969-7.2135.807-.3956 1.614-.7911 2.445-1.1987 7.768-3.8455 8.275-4.0965 14.221-8.7878.849-.67 1.4-1.6567 1.493-2.7342.115-1.3286.099-1.9419-.049-3.5243-.072-.7754-.372-1.5185-.869-2.1175-1.751-2.1066-2.185-2.0661-5.979-1.7114-8.618 1.3236-16.173 6.2091-23.738 10.3169-2.354 1.2598-4.711 2.5151-7.069 3.7682-2.124 1.1321-4.243 2.2756-6.361 3.4196-2.563 1.3166-3.219 1.6536-4.969 2.267-.974.3415-1.92-.5719-1.63-1.5628 1.029-3.5358 2.051-7.0735 3.074-10.6112.355-1.2174.711-2.4347 1.077-3.6889 2.312-8.0222 4.31-15.6576 4.281-24.0628.004-.9847.007-1.9695.01-2.9841.065-1.7444.083-2.218-.507-2.8335-.563-.5872-1.376-.8589-2.188-.9084-1.635-.0996-3.275-.1402-4.912-.1519-1.117-.0181-2.234-.0363-3.384-.055-3.963.2578-7.565.8379-11.457 1.5745z"/><path d="m139.851 120.575c2.374-.242 4.225 2.531 3.756 4.871-.918 4.579-2.4 8.337-4.556 13.084-.456 1.01-.912 2.02-1.382 3.061-6.625 14.425-14.122 27.915-24.77 39.806-.548.624-1.095 1.247-1.659 1.89-9.311 10.485-20.7607 21.284-35.3775 22.756-.2567.026-.5184.023-.775-.004-2.9613-.314-3.243-.41-6.0366-2.353-.356-.248-.6727-.553-.9242-.907-6.7419-9.475-7.9112-21.086-6.465-32.494.0341-.269.0967-.535.1896-.79 4.8291-13.247 19.2961-21.565 31.2133-27.526 1.2508-.639 2.5015-1.278 3.7901-1.936 9.8063-4.939 19.7643-9.527 29.8003-13.979 1.378-.612 2.756-1.224 4.176-1.854 1.281-.556 2.561-1.112 3.881-1.685 1.133-.492 2.266-.984 3.433-1.491.762-.275 1.283-.406 1.706-.449zm-18.596 12.836c-1.906.858-3.208 1.713-5.118 2.56-10.319 4.574-20.3767 8.916-30.0714 14.715-.7833.468-2.3919 1.437-3.199 1.92-7.2224 4.439-13.8433 8.805-17.1191 16.786-.1322.322-.2142.665-.2497 1.011-1.1046 10.769-.1339 20.21 4.9765 29.821.1295.244.2869.474.4668.684 1.1664 1.357 1.3891 1.367 4.6888 1.523 14.096-.457 24.9361-12.669 33.9651-22.249 12.075-13.348 25.584-39.261 29.01-51.989.401-1.491-.419-2.549-1.87-2.022-3.983 1.446-11.633 5.505-15.48 7.24z"/><path d="m155.901 62.4237c2.352-.0782 4.161 2.0023 3.89 4.3398-3.342 28.859-5.512 28.7059-12.302 37.3545-.287.365-.637.687-1.031.934-6.739 4.224-13.824 7.818-21.598 9.58-.683.155-1.4.112-2.06-.124-3.4-1.216-3.811-1.964-5.829-5.419-.557-.938-1.115-1.876-1.689-2.842-.589-1.012-1.178-2.024-1.785-3.067-1.249-2.099-2.502-4.1968-3.758-6.2926-.636-1.0596-1.271-2.1192-1.925-3.2109-2.888-4.7258-5.939-9.3352-9.0322-13.929-.5337-.7928-1.0674-1.5855-1.6173-2.4024-1.3508-2.0002-2.7056-3.9978-4.061-5.995-1.2173-1.826-1.8556-2.7834-2.1903-3.6986-.7611-2.0813 1.4328-3.9711 3.6489-3.9612.179.0008.3585.0016.5387.0024 5.6062.0232 11.2132.0379 16.8202.05 2.421.0064 4.842.0151 7.264.0262 3.491.0156 6.982.0228 10.473.0284 1.073.0067 2.146.0133 3.252.0201 7.95.0007 15.243-1.136 22.991-1.3937zm-10.973 5.0875c-9.732 1.0238-19.019.6955-28.791.6399-1.976-.0065-3.783.0052-5.759 0-2.531-.0074-5.153-.1778-7.771-.3411-3.0783-.1919-5.0196 3.0558-3.4623 5.7182 3.8423 6.5686 7.7953 13.0432 12.1133 19.3354 3.377 4.9416 6.542 9.9174 9.526 15.0724 1.014 1.751 3.16 2.508 5.028 1.732 2.672-1.11 5.336-2.237 7.999-3.368 1.067-.435 2.133-.87 3.232-1.318 4.118-1.769 7.394-3.18 10.43-6.3506.332-.3473.584-.769.76-1.2164 1.916-4.8732 1.544-3.1211 3.093-8.7901.523-1.8632 2.683-9.8607 3.217-11.7615 1.278-3.8469 1.705-4.6719 1.841-6.8681.114-1.8319-1.209-3.4054-3.044-3.36-2.552.063-5.712.5279-8.412.8759z"/></g></svg>